<svg width="111" height="24" fill="none" xmlns="http://www.w3.org/2000/svg"><path d="M13.872 8.061C18.874 6.353 19.214 0 14.322 0a4.994 4.994 0 0 0-2.409.927 5.15 5.15 0 0 0-1.652 2.02L3.66 14.628c-.272.51-.59.994-.95 1.443a5.454 5.454 0 0 1-.942-3.988 5.38 5.38 0 0 1 2.092-3.5l.13-.062-1-1.279c-5.192 3.355-3.682 13.043 5 13.043 7.213 0 10.614-9.033 5.882-12.225ZM7.811 18.353a6.945 6.945 0 0 1-3.541-.87c.459-.56.87-1.158 1.23-1.79L9.631 8.38l.66.071c5.762 1.238 3.471 9.903-2.48 9.903Zm2.64-11.489 2.001-3.478c1.79-3.16 4.081-1.299 2.85 1.023-.95 1.893-2.31 2.455-4.85 2.455Z" fill="#fff"/><path d="m110.02 13.381-.17.194a11.625 11.625 0 0 1-4.492 3.52c.401-.655.711-1.35 1.001-1.883l2.71-4.757c2.291-3.98-1.42-5.31-3.921-3.069l.5-.87h-2.43l-3.841 6.814-.17.194a5.32 5.32 0 0 1-1.671 1.316 5.21 5.21 0 0 1-2.04.546l2.32-4.092c1.49-2.629.12-5.115-2.2-5.115-1.89 0-3.351.778-4.772 3.284l-1.2 2.148-1 1.76-.13.153c-1.77 2.149-3.501 3.867-4.582 3.867-.54 0-.85-.388-.28-1.37l3.541-6.405c1.06-1.913 0-3.284-1.32-3.284a4.921 4.921 0 0 0-1.9.602 5.03 5.03 0 0 0-1.521 1.312l3.921-6.977h-2.36L77.09 13.412l-.14.163a15.276 15.276 0 0 1-3 2.722c.78-2.394.62-6.057 2.13-9.28l-1.85-1.022c-1 1.422-3.231 4.706-5.452 7.366l-.17.194c-1.77 2.097-3.491 3.765-4.581 3.765-.54 0-.85-.39-.28-1.371l2.46-4.4a2.612 2.612 0 0 0-.34-3.365l-1.34-1.708a1.03 1.03 0 0 1-.228-.75 1.04 1.04 0 0 1 .358-.693l-1.26-1.432c-1.39 1.279-1.521 2.7-.64 3.867l.21.286c-1.091 1.566-2.551 3.694-4.152 5.627l-.17.194c-1.77 2.098-4.001 3.765-5.762 3.765-1.51.051-2.41-.972-1.28-3.018l.24-.43c1.58.676 4.561.359 6.402-2.895l.35-.624c1.32-2.322 0-4.092-2-4.092a5.117 5.117 0 0 0-2.697.805 5.278 5.278 0 0 0-1.895 2.121l-2.35 4.194-.15.174a5.229 5.229 0 0 1-1.668 1.324 5.118 5.118 0 0 1-2.044.538l2.311-4.092a6.122 6.122 0 0 0 .9-2.874 2.183 2.183 0 0 0-.54-1.553 2.094 2.094 0 0 0-.662-.499 2.053 2.053 0 0 0-.798-.199h-.2a2.78 2.78 0 0 0-1.6.552l3.12-5.534h-2.5l-6.823 12.184-.13.153c-1.82 2.098-3.54 3.816-4.63 3.816-.541 0-.851-.388-.28-1.37l2.45-4.4a2.611 2.611 0 0 0-.35-3.437l-1.38-1.708a1.03 1.03 0 0 1-.228-.75 1.04 1.04 0 0 1 .357-.693l-1.26-1.432c-1.39 1.279-1.55 2.7-.55 3.867l.21.286c-1.09 1.566-2.55 3.694-4.151 5.627l-.17.194c-1.82 2.098-3.541 3.816-4.632 3.816-.54 0-.85-.388-.28-1.37l4.001-7.06h-1.46a2.64 2.64 0 0 0-.73-1.846 2.523 2.523 0 0 0-1.79-.783 5.374 5.374 0 0 0-2.475.898 5.53 5.53 0 0 0-1.777 1.977l-3.44 6.138c-1.001 1.862-.311 3.57 1.68 3.57a5.946 5.946 0 0 0 3.4-1.636c.075.504.34.958.738 1.264.399.306.9.44 1.393.373 2 0 4.361-2.22 6.402-4.635 1.16-1.401 2-2.66 4.001-5.34l.32.41a1.24 1.24 0 0 1 .14 1.422l-2.57 4.572c-1 1.862-.31 3.57 1.68 3.57 1.43 0 3-1.094 4.511-2.577-.01.699.25 1.374.724 1.878a2.564 2.564 0 0 0 1.807.812h.3a5.33 5.33 0 0 0 2.35-.678 5.464 5.464 0 0 0 1.821-1.665c.18.01.36.01.54 0a7.117 7.117 0 0 0 3.261-1.023c-.13 1.811 1.16 3.192 3.331 3.192 2.791 0 5.552-2.22 7.582-4.634 1.18-1.402 2.101-2.66 4.062-5.381l.33.41a1.24 1.24 0 0 1 .14 1.422l-2.601 4.613c-1 1.862-.31 3.57 1.68 3.57 1.991 0 4.362-2.22 6.402-4.634 1.39-1.637 2.621-3.407 3.491-4.583-1 2.608-.45 7.294-2.78 7.294a1.353 1.353 0 0 1-.711-.288 1.4 1.4 0 0 1-.45-.633l-1.53.819c.154.601.503 1.131.99 1.503a2.64 2.64 0 0 0 1.69.543h.75a8.5 8.5 0 0 0 3.832-1.719l-.84 1.504h2.48l3.741-6.68c3.731-4.819 5.412-4.226 4.341-2.364l-3.19 5.73c-1 1.85-.3 3.57 1.68 3.57 1.43 0 3.001-1.095 4.521-2.589 0 3.202 4.342 3.826 7.002.39h.54a6.706 6.706 0 0 0 2.731-.645L93.545 24h2.47l7.343-13.064c2.661-3.775 4.411-2.414 3.771-1.279l-3.711 6.568a1.015 1.015 0 0 1-.368.4.985.985 0 0 1-1.034 0 1.018 1.018 0 0 1-.369-.4l-1.39.675a2.74 2.74 0 0 0 .992 1.509c.49.372 1.089.562 1.699.537h.14c3.561-.071 5.901-2.25 7.912-4.634a1.579 1.579 0 0 0-.385-.58 1.528 1.528 0 0 0-.595-.35Zm-55.886-3.53c1.42-2.485 3.921-2.045 2.45.533l-.35.624c-1.18 2.046-2.76 2.046-3.68 1.667l1.58-2.823Zm-31.47 3.96c-1.49 2.394-3 3.53-4 3.53-.54 0-.85-.39-.28-1.372l3.42-6.138c1.321-2.343 3.942-1.739 2.741.532l-1.88 3.448Zm18.486 3.427a.902.902 0 0 1-.675-.217.938.938 0 0 1-.325-.643.35.35 0 0 1 0-.102 2.98 2.98 0 0 1 .43-1.299l.87-1.545c.058.528.226 1.037.494 1.493A3.66 3.66 0 0 0 43 16.072c-.19.336-.458.62-.781.823-.323.203-.69.321-1.07.343Zm2.57-2.435a2.724 2.724 0 0 1-.767-1.012 2.785 2.785 0 0 1-.232-1.259c0-1.79 1.7-4.706 3.09-4.706a.923.923 0 0 1 .661.318.966.966 0 0 1 .24.705.23.23 0 0 1 0 .082 3.044 3.044 0 0 1-.47 1.494l-2.521 4.378Zm50.435-1.258h-.14c-.384.005-.75.165-1.02.444-.27.28-.42.657-.42 1.05.009.299.091.59.24.848-1.16 2.046-4.001 1.637-2.5-.961l1.87-3.305 1.18-2.046c1.72-2.997 4.081-1.81 2.6.798l-1.81 3.172Z" fill="#fff"/></svg>